<svg xmlns="http://www.w3.org/2000/svg" viewBox="0 0 60 40" width="60" height="40">
  <rect width="60" height="40" fill="#DE2910"/>
  <path d="M12 6l1.94 5.97 6.06.04-4.88 3.56 1.82 6.03-4.94-3.52-4.94 3.52 1.82-6.03-4.88-3.56 6.06-.04L12 6z" fill="#FFDE00"/>
  <path d="M22 4l.65 1.99 2.02.01-1.63 1.19.61 2.01-1.65-1.17-1.65 1.17.61-2.01-1.63-1.19 2.02-.01L22 4z" fill="#FFDE00"/>
  <path d="M25 10l.65 1.99 2.02.01-1.63 1.19.61 2.01-1.65-1.17-1.65 1.17.61-2.01-1.63-1.19 2.02-.01L25 10z" fill="#FFDE00"/>
  <path d="M22 16l.65 1.99 2.02.01-1.63 1.19.61 2.01-1.65-1.17-1.65 1.17.61-2.01-1.63-1.19 2.02-.01L22 16z" fill="#FFDE00"/>
  <path d="M24.5 20l.65 1.99 2.02.01-1.63 1.19.61 2.01-1.65-1.17-1.65 1.17.61-2.01-1.63-1.19 2.02-.01L24.5 20z" fill="#FFDE00"/>
</svg>
